<svg xmlns="http://www.w3.org/2000/svg" xmlns:xlink="http://www.w3.org/1999/xlink" version="1.1" width="256" height="256" viewBox="0 0 256 256" xml:space="preserve">

<defs>
</defs>
<g style="stroke: none; stroke-width: 0; stroke-dasharray: none; stroke-linecap: butt; stroke-linejoin: miter; stroke-miterlimit: 10; fill: none; fill-rule: nonzero; opacity: 1;" transform="translate(1.4065934065934016 1.4065934065934016) scale(2.81 2.81)" >
	<path d="M 34.985 36.63 l 30.724 30.724 c 0.769 0.769 2.015 0.769 2.784 0 l 8.591 -8.591 c 0.769 -0.769 0.769 -2.015 0 -2.784 L 46.359 25.256 c -0.769 -0.769 -2.015 -0.769 -2.784 0 l -8.591 8.591 C 34.216 34.616 34.216 35.862 34.985 36.63 z" style="stroke: none; stroke-width: 1; stroke-dasharray: none; stroke-linecap: butt; stroke-linejoin: miter; stroke-miterlimit: 10; fill: rgb(0,0,0); fill-rule: nonzero; opacity: 1;" transform=" matrix(1 0 0 1 0 0) " stroke-linecap="round" />
	<path d="M 55.015 36.63 L 24.291 67.355 c -0.769 0.769 -2.015 0.769 -2.784 0 l -8.591 -8.591 c -0.769 -0.769 -0.769 -2.015 0 -2.784 l 30.724 -30.724 c 0.769 -0.769 2.015 -0.769 2.784 0 l 8.591 8.591 C 55.784 34.616 55.784 35.862 55.015 36.63 z" style="stroke: none; stroke-width: 1; stroke-dasharray: none; stroke-linecap: butt; stroke-linejoin: miter; stroke-miterlimit: 10; fill: rgb(0,0,0); fill-rule: nonzero; opacity: 1;" transform=" matrix(1 0 0 1 0 0) " stroke-linecap="round" />
	<path d="M 36.957 44.581 l 0 43.451 c 0 1.087 0.881 1.968 1.968 1.968 h 12.149 c 1.087 0 1.968 -0.881 1.968 -1.968 l 0 -43.451 c 0 -1.087 -0.881 -1.968 -1.968 -1.968 H 38.925 C 37.838 42.613 36.957 43.494 36.957 44.581 z" style="stroke: none; stroke-width: 1; stroke-dasharray: none; stroke-linecap: butt; stroke-linejoin: miter; stroke-miterlimit: 10; fill: rgb(0,0,0); fill-rule: nonzero; opacity: 1;" transform=" matrix(1 0 0 1 0 0) " stroke-linecap="round" />
	<path d="M 75.349 0 L 14.651 0 c -1.276 0 -2.311 1.035 -2.311 2.311 l 0 11.464 c 0 1.276 1.035 2.311 2.311 2.311 l 60.699 0 c 1.276 0 2.311 -1.035 2.311 -2.311 V 2.311 C 77.66 1.035 76.626 0 75.349 0 z" style="stroke: none; stroke-width: 1; stroke-dasharray: none; stroke-linecap: butt; stroke-linejoin: miter; stroke-miterlimit: 10; fill: rgb(0,0,0); fill-rule: nonzero; opacity: 1;" transform=" matrix(1 0 0 1 0 0) " stroke-linecap="round" />
</g>
</svg>